<?xml version="1.0" encoding="iso-8859-1"?>
<svg version="1.1" id="Capa_1" xmlns="http://www.w3.org/2000/svg" xmlns:xlink="http://www.w3.org/1999/xlink" x="0px" y="0px"
	 viewBox="0 0 612.005 612.005" style="enable-background:new 0 0 612.005 612.005;" xml:space="preserve">
<g>
	<g>
		<path d="M595.247,340.97c-33.263,0-60.326-27.063-60.326-60.323c0-4.488-1.8-8.79-5-11.937c-3.198-3.15-7.54-5.003-12.016-4.816
			l-66.576,1.027c-64.668,0.73-115.326,53.518-115.326,120.18c0,34.036,14.245,64.788,37.054,86.676h-254.95
			c-8.72,0-17.335-2.197-24.921-6.35c-8.112-4.443-18.3-1.475-22.745,6.642s-1.472,18.3,6.643,22.745
			c12.507,6.853,26.69,10.475,41.023,10.475h346.336c81.364,0,147.562-66.195,147.562-147.562
			C612.003,348.471,604.501,340.97,595.247,340.97z M464.441,471.775h-8.253c-47.792,0-86.673-38.883-86.673-86.676
			c0-48.882,35.336-86.142,82.262-86.671l51.172-0.79c6.961,37.892,36.762,67.897,74.552,75.16
			C570.101,428.588,522.22,471.775,464.441,471.775z"/>
		<circle cx="462.483" cy="366.218" r="31.987"/>
		<path d="M88.306,433.881c2.834-8.811-2.013-18.249-10.822-21.084l-55.591-17.878c-8.811-2.827-18.247,2.011-21.084,10.822
			c-2.834,8.811,2.013,18.249,10.822,21.084l55.591,17.878c1.707,0.548,3.435,0.809,5.137,0.809
			C79.44,445.512,86.02,440.985,88.306,433.881z"/>
		<path d="M19.844,349.316l49.169,31.499c2.801,1.793,5.932,2.647,9.024,2.647c5.522,0,10.925-2.726,14.125-7.72
			c4.991-7.794,2.722-18.156-5.072-23.149l-49.169-31.499c-7.801-4.991-18.156-2.719-23.149,5.072
			C9.781,333.961,12.05,344.323,19.844,349.316z"/>
		<path d="M86.276,321.521c3.301,3.55,7.782,5.347,12.277,5.347c4.081,0,8.177-1.484,11.404-4.483
			c6.779-6.3,7.164-16.902,0.864-23.681l-39.754-42.768c-6.295-6.772-16.902-7.164-23.681-0.864s-7.164,16.902-0.864,23.681
			L86.276,321.521z"/>
		<path d="M117.26,269.065c3.05,5.549,8.785,8.687,14.7,8.687c2.729,0,5.498-0.665,8.055-2.073
			c8.112-4.457,11.073-14.645,6.616-22.754l-28.126-51.177c-4.457-8.107-14.652-11.068-22.754-6.614
			c-8.112,4.457-11.073,14.645-6.616,22.754L117.26,269.065z"/>
		<path d="M160.033,225.78c1.977,7.523,8.766,12.502,16.196,12.502c1.41,0,2.844-0.18,4.27-0.553
			c8.948-2.351,14.3-11.516,11.947-20.466l-14.841-56.477c-2.351-8.948-11.506-14.283-20.466-11.947
			c-8.948,2.351-14.3,11.516-11.947,20.466L160.033,225.78z"/>
		<path d="M229.376,210.592c0.036,0,0.072,0,0.11,0c9.252-0.057,16.706-7.61,16.648-16.864l-0.371-58.394
			c-0.057-9.218-7.547-16.648-16.753-16.648c-0.036,0-0.072,0-0.11,0c-9.252,0.057-16.706,7.61-16.648,16.864l0.371,58.394
			C212.682,203.162,220.172,210.592,229.376,210.592z"/>
		<path d="M285.304,196.276c1.398,0.359,2.796,0.531,4.175,0.531c7.468,0,14.278-5.032,16.217-12.598l14.508-56.565
			c2.3-8.964-3.105-18.096-12.067-20.394c-8.962-2.305-18.096,3.105-20.394,12.067l-14.508,56.565
			C270.937,184.846,276.34,193.978,285.304,196.276z"/>
		<path d="M349.171,195.256c2.415,1.216,4.984,1.79,7.514,1.79c6.135,0,12.04-3.38,14.984-9.232l26.23-52.171
			c4.155-8.268,0.826-18.34-7.442-22.496c-8.27-4.163-18.338-0.823-22.496,7.442l-26.23,52.171
			C337.573,181.028,340.903,191.101,349.171,195.256z"/>
		<path d="M420.476,214.327c4.318,0,8.632-1.659,11.911-4.969l41.073-41.509c6.511-6.578,6.453-17.189-0.124-23.695
			c-6.58-6.511-17.187-6.449-23.695,0.124l-41.073,41.509c-6.511,6.578-6.453,17.189,0.124,23.695
			C411.959,212.713,416.218,214.327,420.476,214.327z"/>
		<path d="M450.431,233.759c2.588,6.611,8.912,10.65,15.607,10.65c2.032,0,4.098-0.371,6.106-1.159l54.373-21.294
			c8.617-3.373,12.866-13.096,9.491-21.711c-3.373-8.617-13.086-12.878-21.711-9.491l-54.373,21.294
			C451.305,215.42,447.056,225.141,450.431,233.759z"/>
	</g>
</g>
<g>
</g>
<g>
</g>
<g>
</g>
<g>
</g>
<g>
</g>
<g>
</g>
<g>
</g>
<g>
</g>
<g>
</g>
<g>
</g>
<g>
</g>
<g>
</g>
<g>
</g>
<g>
</g>
<g>
</g>
</svg>
